<?xml version="1.0" encoding="UTF-8"?>
<svg id="Layer_2" data-name="Layer 2" xmlns="http://www.w3.org/2000/svg" viewBox="0 0 123.98 87.18">
  <defs>
    <style>
      .cls-1 {
        fill: #fff;
      }
    </style>
  </defs>
  <g id="Layer_1-2" data-name="Layer 1">
    <g>
      <path class="cls-1" d="m0,73.47V19.6c0-3.08,2.5-5.57,5.57-5.57h86.52c3.08,0,5.57,2.5,5.57,5.57v3.88h-62.96c-6.37,0-12.18,3.64-14.97,9.37L0,73.47Z"/>
      <path class="cls-1" d="m120.58,29.51H34.69c-3.87,0-7.41,2.2-9.12,5.68L2.06,82.99c-.95,1.93.46,4.19,2.61,4.19h88.17c2.95,0,5.65-1.68,6.96-4.33l23.82-48.44c1.11-2.26-.53-4.89-3.05-4.89Z"/>
      <path class="cls-1" d="m59.04,6.7c.8,0,1.45.65,1.45,1.45v6.67c0,.8-.65,1.45-1.45,1.45h-20.4c-.8,0-1.45-.65-1.45-1.45v-6.67c0-.8.65-1.45,1.45-1.45h20.4m0-6.7h-20.4c-4.5,0-8.15,3.65-8.15,8.15v6.67c0,4.5,3.65,8.15,8.15,8.15h20.4c4.5,0,8.15-3.65,8.15-8.15v-6.67c0-4.5-3.65-8.15-8.15-8.15h0Z"/>
    </g>
  </g>
</svg>