<?xml version="1.0" encoding="UTF-8"?>
<svg id="Layer_2" data-name="Layer 2" xmlns="http://www.w3.org/2000/svg" viewBox="0 0 139.1 91.62">
  <defs>
    <style>
      .cls-1 {
        fill: #fff;
      }
    </style>
  </defs>
  <g id="Layer_1-2" data-name="Layer 1">
    <g>
      <g>
        <path class="cls-1" d="m31.81,72.97c0-12.08,8.36-19.08,18-19.08,4.93,0,8.9,2.21,11.47,4.72l-4.54,5.28c-1.91-1.7-3.97-2.9-6.73-2.9-5.23,0-9.36,4.4-9.36,11.7s3.65,11.83,9.22,11.83c3.13,0,5.59-1.47,7.46-3.4l4.54,5.17c-3.17,3.51-7.38,5.34-12.31,5.34-9.67,0-17.74-6.4-17.74-18.66Z"/>
        <path class="cls-1" d="m67.65,54.56h13.73c8.09,0,14.72,2.68,14.72,11.33s-6.63,11.96-14.72,11.96h-5.11v13.1h-8.62v-36.4Zm13.03,16.76c4.53,0,6.97-1.85,6.97-5.43s-2.44-4.8-6.97-4.8h-4.41v10.23h4.41Zm-.88,4.36l5.96-5.27,12.17,20.53h-9.65l-8.48-15.27Z"/>
        <path class="cls-1" d="m103.51,54.56h9.4l6.19,16.17c.76,2.15,1.43,4.48,2.19,6.72h.23c.76-2.24,1.41-4.57,2.17-6.72l5.99-16.17h9.4v36.4h-7.85v-13.36c0-3.55.7-8.84,1.1-12.37h-.23l-3.13,8.61-5.39,13.94h-4.78l-5.4-13.94-3.04-8.61h-.23c.41,3.52,1.1,8.82,1.1,12.37v13.36h-7.73v-36.4Z"/>
      </g>
      <path class="cls-1" d="m29.01,85.87c-.54-.01-13.42-.42-21.91-9.84C1.67,69.99-.66,61.81.16,51.72c.54-6.58,3.52-12.3,8.61-16.54,4.46-3.71,10.27-5.92,16.1-6.22C27.05,17.44,35.43.48,55.97,0h.1c15.8,0,25.34,10.73,29.46,18.74,6.36-1.75,15.49-1.52,21.47,7,4.62-.8,13.46-1.46,20.65,3.19,5.59,3.62,8.98,9.55,10.07,17.62l-8.09,1.09c-.75-5.61-2.91-9.59-6.41-11.86-6.78-4.38-16.92-1.55-17.03-1.52l-3.22.96-1.56-2.98c-5.08-9.74-15.16-5.21-16.29-4.67l-4.16,2.01-1.51-4.36c-.24-.68-6.13-17.02-23.34-17.05-21.28.53-23.55,24.28-23.63,25.29l-.35,4.14-4.13-.41c-4.95-.51-10.18,1.1-14.01,4.28-2.35,1.95-5.24,5.43-5.69,10.92-.63,7.73.99,13.83,4.83,18.13,6.09,6.81,15.99,7.19,16.09,7.19l-.2,8.16Z"/>
    </g>
  </g>
</svg>