<?xml version="1.0" encoding="UTF-8"?>
<svg id="Layer_2" data-name="Layer 2" xmlns="http://www.w3.org/2000/svg" viewBox="0 0 102.72 99.75">
  <defs>
    <style>
      .cls-1 {
        fill: #fff;
      }
    </style>
  </defs>
  <g id="Layer_1-2" data-name="Layer 1">
    <g>
      <g>
        <polygon class="cls-1" points="80.83 41.31 72.66 41.31 72.66 18.21 47.17 18.21 47.17 10.05 80.83 10.05 80.83 41.31"/>
        <polygon class="cls-1" points="48.13 99.75 0 99.75 0 10.05 33.74 10.05 33.74 18.21 8.16 18.21 8.16 91.58 48.13 91.58 48.13 99.75"/>
      </g>
      <path class="cls-1" d="m40.41,5.92c-2.49,0-4.52,2.02-4.52,4.52,0,.49.08.97.23,1.41,1.39-.28,2.82-.43,4.29-.43s2.9.15,4.29.43c.15-.44.23-.92.23-1.41,0-2.49-2.02-4.52-4.52-4.52Z"/>
      <path class="cls-1" d="m50.28,13.81c.36-1.06.56-2.19.56-3.38,0-5.76-4.67-10.43-10.43-10.43s-10.43,4.67-10.43,10.43c0,1.18.2,2.32.56,3.38-4.44,2.3-7.97,6.09-9.93,10.71h39.61c-1.96-4.62-5.5-8.42-9.93-10.71Zm-14.39-3.38c0-2.49,2.02-4.52,4.52-4.52s4.52,2.02,4.52,4.52c0,.49-.08.97-.23,1.41-.59,1.8-2.29,3.11-4.29,3.11s-3.7-1.3-4.29-3.11c-.15-.44-.23-.92-.23-1.41Z"/>
      <polygon class="cls-1" points="44.22 54.9 58.92 69.55 91.11 36.96 102.72 48.58 58.44 92.87 32.38 66.81 44.22 54.9"/>
    </g>
  </g>
</svg>