<?xml version="1.0" encoding="UTF-8"?>
<svg id="Layer_2" data-name="Layer 2" xmlns="http://www.w3.org/2000/svg" viewBox="0 0 820.39 77.33">
  <defs>
    <style>
      .cls-1 {
        fill: #fff;
      }
    </style>
  </defs>
  <g id="Layer_1-2" data-name="Layer 1">
    <g>
      <path class="cls-1" d="m30.46,3.03c5.71,0,10.64,1.04,14.77,3.13,4.13,2.09,7.31,4.96,9.53,8.6,2.22,3.64,3.33,7.8,3.33,12.47s-1.11,8.62-3.33,12.05c-2.22,3.43-5.4,6.1-9.53,8.01-4.13,1.91-9.05,2.87-14.77,2.87h-11.27v24.2H2V3.03h28.46m-11.27,33.85h11.27c2.42,0,4.38-.41,5.88-1.22s2.6-1.95,3.31-3.4,1.05-3.09,1.05-4.92c0-1.96-.35-3.77-1.05-5.44-.7-1.67-1.8-3.01-3.31-4.04-1.5-1.03-3.46-1.54-5.88-1.54h-11.27v20.57M30.46,1.03H0v75.32h21.19v-24.2h9.27c5.98,0,11.23-1.03,15.61-3.05,4.46-2.06,7.95-5,10.37-8.74,2.42-3.74,3.65-8.16,3.65-13.14s-1.22-9.57-3.62-13.51c-2.41-3.95-5.89-7.09-10.33-9.34-4.4-2.22-9.67-3.35-15.67-3.35h0Zm-9.27,17.27h9.27c1.99,0,3.59.4,4.75,1.19,1.19.82,2.04,1.85,2.59,3.17.6,1.41.9,2.98.9,4.66,0,1.52-.29,2.88-.85,4.05-.52,1.08-1.33,1.9-2.46,2.52-1.2.65-2.85.98-4.92.98h-9.27v-16.57h0Z"/>
      <path class="cls-1" d="m116.58,3.03v13.27h-32.04v15.04h26.99v12.79h-26.99v17h31.89v13.23h-49.08V3.03h49.23m2-2h-53.23v75.32h53.08v-17.23h-31.89v-13h26.99v-16.79h-26.99v-11.04h32.04V1.03h0Z"/>
      <path class="cls-1" d="m151.55,3.03c5.49,0,10.25.82,14.3,2.45,4.05,1.63,7.18,4.05,9.38,7.25,2.2,3.2,3.31,7.15,3.31,11.85,0,4.08-.64,7.5-1.91,10.24s-3.04,5-5.31,6.78c-1.57,1.23-3.33,2.3-5.25,3.22l14.87,28.79v.73h-18.42l-12.59-25.18h-9.26v25.18h-17.19V3.03h28.07m-10.88,32.87h10.88c2.19,0,4-.39,5.44-1.18,1.44-.78,2.52-1.9,3.26-3.36.74-1.45,1.1-3.19,1.1-5.22s-.38-3.82-1.13-5.29-1.85-2.6-3.31-3.38c-1.45-.78-3.24-1.18-5.36-1.18h-10.88v19.59M151.55,1.03h-30.07v75.32h21.19v-25.18h6.02l12.04,24.07.55,1.11h21.65v-3.22l-.22-.43-13.96-27.02c1.37-.77,2.64-1.61,3.79-2.51,2.51-1.97,4.49-4.5,5.89-7.52,1.39-3,2.1-6.73,2.1-11.08,0-5.09-1.23-9.46-3.66-12.99-2.42-3.51-5.88-6.2-10.28-7.97-4.27-1.72-9.33-2.59-15.05-2.59h0Zm-8.88,17.27h8.88c1.78,0,3.26.32,4.41.94,1.1.59,1.91,1.42,2.47,2.53.6,1.18.91,2.65.91,4.38s-.3,3.15-.89,4.31c-.55,1.09-1.35,1.91-2.43,2.5-1.13.62-2.64.93-4.48.93h-8.88v-15.59h0Z"/>
      <path class="cls-1" d="m236.64,3.03v13.27h-30.52v16.41h27.73v13.23h-27.73v28.41h-17.19V3.03h47.71m2-2h-51.71v75.32h21.19v-28.41h27.73v-17.23h-27.73v-12.41h30.52V1.03h0Z"/>
      <path class="cls-1" d="m293.02,3.03v13.27h-32.04v15.04h26.99v12.79h-26.99v17h31.89v13.23h-49.08V3.03h49.23m2-2h-53.23v75.32h53.08v-17.23h-31.89v-13h26.99v-16.79h-26.99v-11.04h32.04V1.03h0Z"/>
      <path class="cls-1" d="m327.9,2c6.2,0,11.45,1.11,15.72,3.33,4.28,2.22,7.59,5.27,9.94,9.14,2.35,3.87,3.74,8.27,4.16,13.2h-17.15c-.07-2.68-.52-4.92-1.37-6.74-.85-1.81-2.19-3.18-4.02-4.09-1.83-.91-4.26-1.37-7.3-1.37-2.12,0-3.97.39-5.54,1.17-1.57.78-2.87,2.03-3.92,3.72s-1.82,3.89-2.33,6.59c-.51,2.69-.76,5.94-.76,9.72v3.97c0,3.79.23,7.02.69,9.7.46,2.68,1.19,4.87,2.2,6.56,1.01,1.7,2.33,2.95,3.94,3.75,1.62.8,3.6,1.2,5.95,1.2,2.61,0,4.82-.42,6.61-1.25s3.18-2.11,4.16-3.82c.98-1.71,1.5-3.91,1.57-6.59h17.14c-.23,4.96-1.57,9.34-4.02,13.13s-5.84,6.74-10.16,8.84c-4.33,2.11-9.43,3.16-15.31,3.16-4.77,0-9.02-.8-12.76-2.4s-6.91-3.9-9.5-6.91c-2.6-3-4.57-6.65-5.93-10.92-1.36-4.28-2.03-9.09-2.03-14.45v-3.87c0-5.36.71-10.18,2.13-14.48,1.42-4.29,3.45-7.95,6.07-10.97,2.63-3.02,5.79-5.33,9.48-6.93,3.69-1.6,7.79-2.4,12.3-2.4m0-2c-4.76,0-9.16.86-13.09,2.57-3.95,1.71-7.38,4.22-10.19,7.45-2.79,3.21-4.97,7.13-6.46,11.66-1.48,4.48-2.23,9.56-2.23,15.1v3.87c0,5.54.72,10.6,2.13,15.06,1.43,4.52,3.56,8.43,6.32,11.63,2.79,3.22,6.23,5.73,10.23,7.44,3.97,1.7,8.53,2.56,13.55,2.56,6.16,0,11.6-1.13,16.18-3.36,4.64-2.26,8.33-5.47,10.97-9.55,2.63-4.07,4.09-8.82,4.33-14.12l.1-2.09h-21.19l-.05,1.95c-.06,2.33-.5,4.23-1.3,5.64-.78,1.36-1.84,2.34-3.27,3-1.52.71-3.46,1.06-5.77,1.06-2.03,0-3.74-.33-5.06-.99-1.28-.63-2.3-1.61-3.11-2.98-.88-1.48-1.54-3.46-1.95-5.88-.44-2.55-.66-5.7-.66-9.36v-3.97c0-3.65.24-6.8.73-9.35.46-2.44,1.15-4.43,2.06-5.91.85-1.39,1.87-2.36,3.11-2.98,1.28-.64,2.84-.96,4.64-.96,2.71,0,4.86.39,6.4,1.16,1.43.71,2.44,1.74,3.1,3.15.73,1.55,1.12,3.55,1.18,5.94l.05,1.95h21.28l-.19-2.17c-.45-5.22-1.95-9.95-4.45-14.07-2.53-4.17-6.14-7.49-10.73-9.87-4.55-2.36-10.15-3.56-16.65-3.56h0Z"/>
      <path class="cls-1" d="m420.33,3.03v13.27h-21.46v58.05h-17.19V16.3h-20.97V3.03h59.62m2-2h-63.62v17.27h20.97v58.05h21.19V18.3h21.46V1.03h0Z"/>
      <path class="cls-1" d="m478.63,2c6.2,0,11.45,1.11,15.72,3.33,4.28,2.22,7.59,5.27,9.94,9.14,2.35,3.87,3.74,8.27,4.16,13.2h-17.15c-.07-2.68-.52-4.92-1.37-6.74-.85-1.81-2.19-3.18-4.02-4.09-1.83-.91-4.26-1.37-7.3-1.37-2.12,0-3.97.39-5.54,1.17-1.57.78-2.87,2.03-3.92,3.72-1.05,1.7-1.82,3.89-2.33,6.59-.51,2.69-.76,5.94-.76,9.72v3.97c0,3.79.23,7.02.69,9.7.46,2.68,1.19,4.87,2.2,6.56,1.01,1.7,2.33,2.95,3.94,3.75,1.62.8,3.6,1.2,5.95,1.2,2.61,0,4.82-.42,6.61-1.25s3.18-2.11,4.16-3.82c.98-1.71,1.5-3.91,1.57-6.59h17.14c-.23,4.96-1.57,9.34-4.02,13.13s-5.84,6.74-10.16,8.84c-4.33,2.11-9.43,3.16-15.31,3.16-4.77,0-9.02-.8-12.76-2.4-3.74-1.6-6.91-3.9-9.5-6.91-2.6-3-4.57-6.65-5.93-10.92-1.36-4.28-2.03-9.09-2.03-14.45v-3.87c0-5.36.71-10.18,2.13-14.48,1.42-4.29,3.45-7.95,6.07-10.97s5.79-5.33,9.48-6.93c3.69-1.6,7.79-2.4,12.3-2.4m0-2c-4.76,0-9.16.86-13.09,2.57-3.95,1.71-7.38,4.22-10.19,7.45-2.79,3.21-4.97,7.13-6.46,11.66-1.48,4.48-2.23,9.56-2.23,15.1v3.87c0,5.54.72,10.6,2.13,15.06,1.43,4.52,3.56,8.43,6.32,11.63,2.79,3.22,6.23,5.73,10.23,7.44,3.97,1.7,8.53,2.56,13.55,2.56,6.16,0,11.6-1.13,16.18-3.36,4.64-2.26,8.33-5.47,10.97-9.55,2.63-4.07,4.09-8.82,4.33-14.12l.1-2.09h-21.19l-.05,1.95c-.06,2.33-.5,4.23-1.3,5.64-.78,1.36-1.84,2.34-3.27,3-1.52.71-3.46,1.06-5.77,1.06-2.03,0-3.74-.33-5.06-.99-1.28-.63-2.3-1.61-3.11-2.98-.88-1.48-1.54-3.46-1.95-5.88-.44-2.55-.66-5.7-.66-9.36v-3.97c0-3.65.24-6.8.72-9.35.46-2.44,1.15-4.43,2.06-5.91.85-1.39,1.87-2.36,3.11-2.98,1.28-.64,2.84-.96,4.64-.96,2.71,0,4.86.39,6.4,1.16,1.43.71,2.44,1.74,3.1,3.15.73,1.55,1.12,3.55,1.18,5.94l.05,1.95h21.28l-.19-2.17c-.45-5.22-1.95-9.95-4.45-14.07-2.53-4.17-6.14-7.49-10.73-9.87-4.55-2.36-10.15-3.56-16.65-3.56h0Z"/>
      <path class="cls-1" d="m545.64,2.05c4.57,0,8.76.81,12.56,2.42,3.8,1.62,7.09,3.95,9.87,7,2.78,3.05,4.93,6.75,6.47,11.1,1.53,4.34,2.3,9.24,2.3,14.7v2.89c0,5.45-.76,10.34-2.28,14.67s-3.67,8.02-6.44,11.07c-2.78,3.05-6.06,5.39-9.85,7-3.79,1.62-7.97,2.42-12.54,2.42s-8.81-.81-12.61-2.42c-3.81-1.62-7.1-3.95-9.9-7-2.79-3.05-4.95-6.74-6.47-11.07s-2.28-9.22-2.28-14.67v-2.89c0-5.45.76-10.35,2.28-14.7,1.52-4.34,3.66-8.04,6.42-11.1,2.76-3.05,6.04-5.39,9.85-7,3.8-1.62,8.01-2.42,12.61-2.42m.1,59.86c2.19,0,4.13-.47,5.83-1.42,1.7-.95,3.13-2.35,4.29-4.21,1.16-1.86,2.04-4.14,2.65-6.83.6-2.69.91-5.79.91-9.28v-2.99c0-3.53-.3-6.64-.91-9.33-.6-2.69-1.49-4.96-2.67-6.78s-2.62-3.21-4.33-4.14c-1.71-.93-3.67-1.4-5.85-1.4s-4.28.46-5.98,1.4c-1.7.93-3.12,2.31-4.26,4.14-1.14,1.83-2,4.09-2.57,6.78-.57,2.69-.86,5.8-.86,9.33v2.99c0,3.49.29,6.59.86,9.28.57,2.69,1.44,4.97,2.6,6.83,1.16,1.86,2.6,3.27,4.31,4.21,1.71.95,3.71,1.42,6,1.42m-.1-61.86c-4.85,0-9.36.87-13.4,2.58-4.06,1.72-7.61,4.25-10.55,7.5-2.93,3.24-5.22,7.2-6.82,11.78-1.59,4.54-2.39,9.7-2.39,15.36v2.89c0,5.65.8,10.81,2.39,15.33,1.6,4.56,3.92,8.52,6.88,11.76,2.97,3.25,6.54,5.77,10.59,7.5,4.03,1.71,8.54,2.58,13.4,2.58s9.31-.87,13.33-2.59c4.04-1.72,7.58-4.25,10.54-7.5,2.94-3.24,5.25-7.19,6.85-11.75,1.59-4.52,2.39-9.68,2.39-15.33v-2.89c0-5.65-.81-10.82-2.42-15.36-1.62-4.58-3.93-8.54-6.87-11.77-2.96-3.25-6.51-5.78-10.57-7.5-4.04-1.71-8.53-2.58-13.35-2.58h0Zm.1,59.86c-1.93,0-3.63-.39-5.03-1.17-1.41-.78-2.61-1.96-3.58-3.52-1.03-1.66-1.82-3.74-2.34-6.19-.54-2.54-.81-5.53-.81-8.87v-2.99c0-3.37.27-6.37.81-8.92.52-2.45,1.3-4.52,2.31-6.14.97-1.55,2.12-2.68,3.53-3.45,1.39-.76,3.08-1.15,5.02-1.15s3.49.39,4.9,1.15c1.43.77,2.61,1.91,3.61,3.46,1.04,1.62,1.85,3.69,2.4,6.14.57,2.54.86,5.53.86,8.89v2.99c0,3.33-.29,6.3-.86,8.85-.55,2.46-1.36,4.55-2.39,6.21-.97,1.56-2.17,2.75-3.56,3.52-1.41.79-3,1.17-4.86,1.17h0Z"/>
      <path class="cls-1" d="m608.68,3.03c4.83,0,9.27.83,13.3,2.47,4.03,1.65,7.53,4,10.48,7.05,2.96,3.05,5.24,6.66,6.86,10.83,1.62,4.16,2.42,8.78,2.42,13.84v2.99c0,5.03-.81,9.63-2.42,13.81-1.62,4.18-3.89,7.79-6.83,10.83-2.94,3.04-6.41,5.38-10.41,7.03-4,1.65-8.38,2.47-13.15,2.47h-23.17V3.03h22.92m-5.73,58.1h5.98c3.27,0,6.03-.78,8.3-2.35s4-3.91,5.19-7.03c1.19-3.12,1.79-6.96,1.79-11.54v-3.09c0-3.43-.33-6.44-1-9.04-.67-2.6-1.66-4.77-2.96-6.51-1.31-1.75-2.93-3.06-4.87-3.94-1.94-.88-4.17-1.32-6.69-1.32h-5.73v44.82m5.73-60.1h-24.92v75.32h25.17c5.01,0,9.69-.88,13.91-2.62,4.24-1.75,7.97-4.27,11.08-7.49,3.11-3.22,5.56-7.08,7.26-11.5,1.7-4.39,2.56-9.28,2.56-14.53v-2.99c0-5.29-.86-10.19-2.56-14.56-1.7-4.39-4.16-8.26-7.29-11.49-3.14-3.24-6.89-5.77-11.16-7.51-4.26-1.74-8.99-2.62-14.06-2.62h0Zm-3.73,17.27h3.73c2.21,0,4.19.39,5.86,1.14,1.65.75,2.99,1.83,4.1,3.32,1.14,1.53,2.03,3.49,2.63,5.82.62,2.42.94,5.3.94,8.54v3.09c0,4.31-.56,7.95-1.66,10.82-1.04,2.72-2.54,4.77-4.46,6.1-1.92,1.33-4.33,2-7.17,2h-3.98V18.3h0Z"/>
      <path class="cls-1" d="m699.89,3.03v13.27h-32.04v15.04h26.99v12.79h-26.99v17h31.89v13.23h-49.08V3.03h49.23m2-2h-53.23v75.32h53.08v-17.23h-31.89v-13h26.99v-16.79h-26.99v-11.04h32.04V1.03h0Z"/>
      <path class="cls-1" d="m768.57,3.03l26.35,71.32h-18.52l-4.12-13.32h-23.55l-4.11,13.32h-18.47l26.21-71.32h16.21m-15.74,44.72h15.35l-7.68-24.82-7.66,24.82m17.14-46.72h-19l-.48,1.31-26.21,71.32-.99,2.69h22.81l.44-1.41,3.68-11.91h20.6l3.69,11.92.44,1.41h22.86l-1-2.69-26.35-71.32-.48-1.31h0Zm-14.43,44.72l4.95-16.05,4.97,16.05h-9.92Z"/>
      <path class="cls-1" d="m818.39,3.03v71.32h-17.14V3.03h17.14m2-2h-21.14v75.32h21.14V1.03h0Z"/>
    </g>
  </g>
</svg>