<svg xmlns="http://www.w3.org/2000/svg" viewBox="0 0 793.99 75.33"><defs><style>.cls-1{fill:#fff;}</style></defs><g id="Layer_2" data-name="Layer 2"><g id="Layer_1-2" data-name="Layer 1"><path class="cls-1" d="M29.46,2A32.38,32.38,0,0,1,44.23,5.16a23,23,0,0,1,9.53,8.6,23.47,23.47,0,0,1,3.33,12.47,21.69,21.69,0,0,1-3.33,12.05,22,22,0,0,1-9.53,8,35,35,0,0,1-14.77,2.86H18.19v24.2H1V2H29.46M18.19,35.88H29.46a12.23,12.23,0,0,0,5.88-1.23,7.53,7.53,0,0,0,3.3-3.4,11,11,0,0,0,1.06-4.92,13.71,13.71,0,0,0-1.06-5.44,9,9,0,0,0-3.3-4,10.19,10.19,0,0,0-5.88-1.55H18.19V35.88M29.46,1H0V74.35H19.19V50.15H29.46a36,36,0,0,0,15.19-3,23.12,23.12,0,0,0,10-8.37,22.8,22.8,0,0,0,3.49-12.59,24.52,24.52,0,0,0-3.48-13,24.12,24.12,0,0,0-9.93-9A33.5,33.5,0,0,0,29.46,1ZM19.19,16.3H29.46a9.25,9.25,0,0,1,5.31,1.37,8,8,0,0,1,2.95,3.61,12.85,12.85,0,0,1,1,5,10.13,10.13,0,0,1-1,4.48,6.44,6.44,0,0,1-2.88,3,11.27,11.27,0,0,1-5.4,1.11H19.19V16.3Z"/><path class="cls-1" d="M115.58,2V15.3h-32v15h27V43.13h-27v17h31.89V73.35H66.35V2h49.23m1-1H65.35V74.35h51.08V59.13H84.54v-15h27V29.34h-27v-13h32V1Z"/><path class="cls-1" d="M150.55,2a38.2,38.2,0,0,1,14.31,2.45,20.26,20.26,0,0,1,9.38,7.25,20.42,20.42,0,0,1,3.3,11.85,24.16,24.16,0,0,1-1.91,10.24,18.1,18.1,0,0,1-5.31,6.78,28.38,28.38,0,0,1-5.25,3.23l14.87,28.79v.73H161.52L148.94,48.17h-9.26V73.35h-17.2V2h28.07M139.68,34.9h10.87A11.21,11.21,0,0,0,156,33.72a7.7,7.7,0,0,0,3.26-3.35,11.55,11.55,0,0,0,1.1-5.22,11.51,11.51,0,0,0-1.13-5.29,7.75,7.75,0,0,0-3.3-3.38,11.28,11.28,0,0,0-5.37-1.18H139.68V34.9M150.55,1H121.48V74.35h19.2V49.17h7.64L160.63,73.8l.28.55h20v-2l-.11-.21L166.42,44.27a28.31,28.31,0,0,0,4.51-2.88,19.26,19.26,0,0,0,5.61-7.15,25.35,25.35,0,0,0,2-10.66,21.5,21.5,0,0,0-3.48-12.42,21.32,21.32,0,0,0-9.83-7.61A39.37,39.37,0,0,0,150.55,1ZM140.68,16.3h9.87a10.26,10.26,0,0,1,4.89,1.06,6.75,6.75,0,0,1,2.89,2.95,10.55,10.55,0,0,1,1,4.84,10.54,10.54,0,0,1-1,4.77,6.57,6.57,0,0,1-2.84,2.92,10.33,10.33,0,0,1-5,1.06h-9.87V16.3Z"/><path class="cls-1" d="M235.64,2V15.3H205.12V31.71h27.73V44.94H205.12V73.35H187.93V2h47.71m1-1H186.93V74.35h19.19V45.94h27.73V30.71H206.12V16.3h30.52V1Z"/><path class="cls-1" d="M292,2V15.3H260v15h27V43.13H260v17h31.88V73.35H242.79V2H292m1-1H241.79V74.35h51.08V59.13H261v-15h27V29.34H261v-13h32V1Z"/><path class="cls-1" d="M326.9,1q9.3,0,15.72,3.33a24.6,24.6,0,0,1,9.95,9.14,30,30,0,0,1,4.16,13.2H339.59a16.93,16.93,0,0,0-1.38-6.74,8.47,8.47,0,0,0-4-4.09,16.49,16.49,0,0,0-7.3-1.37,12.19,12.19,0,0,0-5.54,1.18,9.74,9.74,0,0,0-3.92,3.72A19.37,19.37,0,0,0,315.12,26a53.09,53.09,0,0,0-.76,9.72v4a59.55,59.55,0,0,0,.68,9.7,19.18,19.18,0,0,0,2.21,6.56,9.45,9.45,0,0,0,3.94,3.75,13.34,13.34,0,0,0,5.95,1.2,15.73,15.73,0,0,0,6.62-1.25,9.11,9.11,0,0,0,4.16-3.82,13.9,13.9,0,0,0,1.57-6.59h17.14a25.9,25.9,0,0,1-4,13.13,24.59,24.59,0,0,1-10.17,8.84,34.59,34.59,0,0,1-15.31,3.16,32.19,32.19,0,0,1-12.76-2.4,25.74,25.74,0,0,1-9.5-6.91A30.56,30.56,0,0,1,299,54.1a47.91,47.91,0,0,1-2-14.45V35.78a46,46,0,0,1,2.13-14.48,31.75,31.75,0,0,1,6.07-11A26.27,26.27,0,0,1,314.6,3.4,30.6,30.6,0,0,1,326.9,1m0-1a31.85,31.85,0,0,0-12.69,2.48,27.37,27.37,0,0,0-9.84,7.2A32.8,32.8,0,0,0,298.1,21a47.1,47.1,0,0,0-2.18,14.79v3.87A48.94,48.94,0,0,0,298,54.4a31.84,31.84,0,0,0,6.12,11.28A27,27,0,0,0,314,72.85a33.23,33.23,0,0,0,13.15,2.48,35.8,35.8,0,0,0,15.75-3.26,25.78,25.78,0,0,0,10.57-9.2,27,27,0,0,0,4.17-13.62l.05-1H338.51l0,1a12.93,12.93,0,0,1-1.44,6.11,8,8,0,0,1-3.71,3.41,14.76,14.76,0,0,1-6.2,1.16,12.33,12.33,0,0,1-5.5-1.1,8.43,8.43,0,0,1-3.53-3.36A18,18,0,0,1,316,49.18a57.45,57.45,0,0,1-.67-9.53v-4a53,53,0,0,1,.74-9.54,18.46,18.46,0,0,1,2.2-6.25,8.84,8.84,0,0,1,3.51-3.35,11.31,11.31,0,0,1,5.09-1.07,15.53,15.53,0,0,1,6.85,1.27,7.45,7.45,0,0,1,3.56,3.62,16.14,16.14,0,0,1,1.28,6.33l0,1h19.21l-.09-1.09A31.17,31.17,0,0,0,353.42,13a25.66,25.66,0,0,0-10.34-9.51C338.68,1.16,333.23,0,326.9,0Z"/><path class="cls-1" d="M419.33,2V15.3H397.88V73.35h-17.2v-58h-21V2h59.61m1-1H358.72V16.3h21V74.35h19.2v-58h21.45V1Z"/><path class="cls-1" d="M453.23,1Q462.54,1,469,4.33a24.64,24.64,0,0,1,9.94,9.14,30,30,0,0,1,4.16,13.2H465.92a16.93,16.93,0,0,0-1.37-6.74,8.54,8.54,0,0,0-4-4.09,16.49,16.49,0,0,0-7.3-1.37,12.12,12.12,0,0,0-5.53,1.18,9.61,9.61,0,0,0-3.92,3.72A19.36,19.36,0,0,0,441.45,26a53.09,53.09,0,0,0-.76,9.72v4a58.33,58.33,0,0,0,.69,9.7,19,19,0,0,0,2.2,6.56,9.41,9.41,0,0,0,3.95,3.75,13.31,13.31,0,0,0,6,1.2,15.72,15.72,0,0,0,6.61-1.25,9.07,9.07,0,0,0,4.16-3.82,13.78,13.78,0,0,0,1.57-6.59H483a25.91,25.91,0,0,1-4,13.13,24.62,24.62,0,0,1-10.16,8.84,34.59,34.59,0,0,1-15.31,3.16,32.15,32.15,0,0,1-12.76-2.4A25.78,25.78,0,0,1,431.21,65a30.54,30.54,0,0,1-5.92-10.92,47.59,47.59,0,0,1-2-14.45V35.78a46,46,0,0,1,2.13-14.48,31.61,31.61,0,0,1,6.08-11,26.27,26.27,0,0,1,9.48-6.93A30.59,30.59,0,0,1,453.23,1m0-1a31.85,31.85,0,0,0-12.69,2.48,27.54,27.54,0,0,0-9.84,7.2A32.8,32.8,0,0,0,424.43,21a47.39,47.39,0,0,0-2.18,14.79v3.87a48.94,48.94,0,0,0,2.08,14.75,31.7,31.7,0,0,0,6.13,11.28,26.78,26.78,0,0,0,9.86,7.17,33.28,33.28,0,0,0,13.16,2.48,35.79,35.79,0,0,0,15.74-3.26,25.72,25.72,0,0,0,10.57-9.2A27,27,0,0,0,484,49.25l.05-1H464.85l0,1a12.94,12.94,0,0,1-1.43,6.11,8,8,0,0,1-3.72,3.41,14.71,14.71,0,0,1-6.19,1.16,12.37,12.37,0,0,1-5.51-1.1,8.49,8.49,0,0,1-3.53-3.36,18.43,18.43,0,0,1-2.08-6.22,58.46,58.46,0,0,1-.67-9.53v-4a53,53,0,0,1,.74-9.54,18.46,18.46,0,0,1,2.2-6.25,8.77,8.77,0,0,1,3.51-3.35,11.34,11.34,0,0,1,5.09-1.07,15.53,15.53,0,0,1,6.85,1.27,7.45,7.45,0,0,1,3.56,3.62,15.79,15.79,0,0,1,1.28,6.33l0,1h19.21l-.09-1.09A31.16,31.16,0,0,0,479.76,13a25.79,25.79,0,0,0-10.34-9.51C465,1.16,459.57,0,453.23,0Z"/><path class="cls-1" d="M520.24,1.05a31.94,31.94,0,0,1,12.57,2.42,28.14,28.14,0,0,1,9.87,7,32.38,32.38,0,0,1,6.47,11.09,44.12,44.12,0,0,1,2.3,14.7v2.89a44.12,44.12,0,0,1-2.28,14.67,32,32,0,0,1-6.44,11.07,28,28,0,0,1-9.85,7,33.88,33.88,0,0,1-25.15,0,28.13,28.13,0,0,1-9.9-7,31.74,31.74,0,0,1-6.46-11.07,44.12,44.12,0,0,1-2.28-14.67V36.27a44.39,44.39,0,0,1,2.28-14.7,32.11,32.11,0,0,1,6.41-11.09,27.89,27.89,0,0,1,9.85-7,32,32,0,0,1,12.61-2.42m.1,59.86a11.74,11.74,0,0,0,5.83-1.42,11.9,11.9,0,0,0,4.29-4.21,21.9,21.9,0,0,0,2.64-6.84,42.28,42.28,0,0,0,.91-9.28v-3a42.5,42.5,0,0,0-.91-9.33,20.7,20.7,0,0,0-2.67-6.78,11.87,11.87,0,0,0-4.33-4.14,13.19,13.19,0,0,0-11.83,0A11.54,11.54,0,0,0,510,20.06a20.68,20.68,0,0,0-2.58,6.78,45.38,45.38,0,0,0-.85,9.33v3a45.15,45.15,0,0,0,.85,9.28,21.18,21.18,0,0,0,2.6,6.84,11.87,11.87,0,0,0,4.31,4.21,12.21,12.21,0,0,0,6,1.42M520.24.05a33.11,33.11,0,0,0-13,2.5A29,29,0,0,0,497,9.81a33.53,33.53,0,0,0-6.62,11.43,45.55,45.55,0,0,0-2.33,15v2.89a45.28,45.28,0,0,0,2.33,15,32.81,32.81,0,0,0,6.68,11.42,29.39,29.39,0,0,0,10.24,7.25,34.87,34.87,0,0,0,25.93,0,29.13,29.13,0,0,0,10.2-7.26,33.09,33.09,0,0,0,6.64-11.41,45.28,45.28,0,0,0,2.34-15V36.27a45.28,45.28,0,0,0-2.36-15,33.53,33.53,0,0,0-6.67-11.43A29.12,29.12,0,0,0,533.2,2.55a33,33,0,0,0-13-2.5Zm.1,59.86a11.32,11.32,0,0,1-5.52-1.3,10.92,10.92,0,0,1-3.94-3.86,20.57,20.57,0,0,1-2.47-6.51,44.68,44.68,0,0,1-.83-9.08v-3a44.81,44.81,0,0,1,.83-9.12,20.26,20.26,0,0,1,2.44-6.46,10.72,10.72,0,0,1,3.9-3.8,11.36,11.36,0,0,1,5.49-1.27,11.22,11.22,0,0,1,5.38,1.27,11,11,0,0,1,4,3.81,20,20,0,0,1,2.54,6.46,42.51,42.51,0,0,1,.88,9.11v3a42.22,42.22,0,0,1-.88,9.06,21.34,21.34,0,0,1-2.52,6.53,10.89,10.89,0,0,1-3.93,3.86,10.77,10.77,0,0,1-5.34,1.3Z"/><path class="cls-1" d="M583.29,2a34.84,34.84,0,0,1,13.3,2.47,30.45,30.45,0,0,1,10.48,7.06,32,32,0,0,1,6.86,10.82,38.12,38.12,0,0,1,2.42,13.84v3A38.11,38.11,0,0,1,613.93,53a32,32,0,0,1-6.84,10.83,30.33,30.33,0,0,1-10.4,7,34.23,34.23,0,0,1-13.16,2.47H560.36V2h22.93m-5.73,58.1h6a14.25,14.25,0,0,0,8.31-2.36,14.49,14.49,0,0,0,5.19-7,32.57,32.57,0,0,0,1.79-11.54V36.12a36.39,36.39,0,0,0-1-9,18.63,18.63,0,0,0-3-6.51A12.36,12.36,0,0,0,590,16.63a16,16,0,0,0-6.68-1.33h-5.73V60.13M583.29,1H559.36V74.35h24.17a35.41,35.41,0,0,0,13.54-2.55,31.4,31.4,0,0,0,10.74-7.26,33.05,33.05,0,0,0,7.05-11.16,39,39,0,0,0,2.49-14.17v-3A39.2,39.2,0,0,0,614.86,22a33.19,33.19,0,0,0-7.07-11.16A31.54,31.54,0,0,0,597,3.58,36,36,0,0,0,583.29,1ZM578.56,16.3h4.73a15.05,15.05,0,0,1,6.27,1.24,11.53,11.53,0,0,1,4.49,3.63,17.52,17.52,0,0,1,2.79,6.16,35.44,35.44,0,0,1,1,8.79v3.09a31.49,31.49,0,0,1-1.73,11.18A13.58,13.58,0,0,1,591.27,57a13.37,13.37,0,0,1-7.74,2.18h-5V16.3Z"/><path class="cls-1" d="M674.5,2V15.3h-32v15h27V43.13h-27v17h31.89V73.35H625.27V2H674.5m1-1H624.27V74.35h51.08V59.13H643.46v-15h27V29.34h-27v-13h32V1Z"/><path class="cls-1" d="M743.18,2l26.35,71.32H751L746.89,60H723.34l-4.12,13.32H700.75L727,2h16.22M727.43,46.75h15.35L735.1,21.93l-7.67,24.82M743.87,1H726.26l-.24.65L699.82,73l-.5,1.34H720l.22-.7L724.07,61h22.08l3.91,12.62.22.7H771l-.5-1.35L744.11,1.68,743.87,1ZM728.79,45.75l6.31-20.43,6.32,20.43Z"/><path class="cls-1" d="M793,2V73.35H775.85V2H793m1-1H774.85V74.35H794V1Z"/></g></g></svg>