<?xml version="1.0" encoding="UTF-8"?>
<svg id="Layer_2" data-name="Layer 2" xmlns="http://www.w3.org/2000/svg" viewBox="0 0 110.98 124.64">
  <defs>
    <style>
      .cls-1 {
        fill: #fff;
      }
    </style>
  </defs>
  <g id="Layer_1-2" data-name="Layer 1">
    <path class="cls-1" d="m52.33,124.64c-2.06-.43-4.17-.44-6.22-.94-1.92-.47-3.02-1.73-3.04-3.68-.02-1.87-.05-3.74.02-5.6.03-.78-.37-1.01-.94-1.32-.64-.35-.88.09-1.21.42-1.27,1.26-2.52,2.53-3.79,3.78-1.6,1.58-3.29,1.76-5.15.5-5.2-3.52-9.55-7.9-13.05-13.11-1.12-1.66-.98-3.4.43-4.87,1.29-1.35,2.62-2.66,3.96-3.95.43-.41.59-.76.33-1.37-.25-.59-.55-.78-1.17-.76-1.87.04-3.73.04-5.6,0-2.1-.03-3.38-1.14-3.77-3.21-.82-4.27-1.26-8.57-.73-12.91.1-.82-.08-1.35-.89-1.85-6.25-3.92-10.09-9.58-11.2-16.85-1.94-12.58,6.19-24.28,18.64-27.03,1.12-.25,1.72-.49,1.9-1.83.8-6.05,3.09-11.53,6.85-16.35C33.31,6.47,40.63,1.89,49.71.47c16.12-2.53,30.8,5.38,37.73,20.16,1.5,3.2,2.4,6.58,2.82,10.08.09.75.37.88,1,1,7.08,1.44,12.58,5.2,16.34,11.4,6.7,11.06,3.11,25.8-7.93,32.56-.91.56-1.17,1.15-1.06,2.15.5,4.35.08,8.65-.75,12.92-.37,1.88-1.65,2.98-3.56,3.03-1.91.05-3.81.02-5.72,0-.6,0-.95.14-1.21.74-.26.6-.14.94.3,1.37,1.29,1.24,2.54,2.51,3.79,3.79,1.62,1.66,1.78,3.31.48,5.24-3.49,5.18-7.83,9.5-13.01,12.98-1.73,1.16-3.46,1-4.96-.46-1.34-1.3-2.66-2.62-3.96-3.96-.39-.4-.71-.55-1.26-.29-.53.25-.84.5-.82,1.16.04,1.91.03,3.81,0,5.72-.02,1.9-1.09,3.24-2.94,3.63-1.66.35-3.33.67-5.04.74-.36.01-.74-.03-1.04.23h-6.58Zm7.08-71.9c-.36.58-.25.95-.25,1.3,0,5.56.02,11.12-.03,16.68,0,1.03.19,1.36,1.31,1.35,8.76-.06,17.53-.03,26.29-.03.85,0,1.69-.06,2.54-.19,11.04-1.65,17.5-13.04,12.97-23.21-2.8-6.28-7.88-9.66-14.77-9.93-2.66-.1-4.41-1.99-4.24-4.24.12-1.61-.2-3.23-.5-4.82-2.99-15.61-18.88-25.58-34.22-21.5-12.18,3.24-20.51,13.94-20.77,26.66-.05,2.3-1.51,3.82-3.81,3.83-10,.05-17.61,8.91-16.48,18.62.94,8.07,8,14.72,16.08,14.76,9.09.05,18.18,0,27.27.04.88,0,1.07-.28,1.07-1.11-.03-5.76-.02-11.52-.03-17.29,0-.25.17-.58-.33-.76-1.42,1.44-2.85,2.93-4.32,4.38-1.59,1.56-3.89,1.61-5.34.16-1.45-1.46-1.42-3.77.14-5.34,3.54-3.57,7.1-7.13,10.67-10.66,1.8-1.78,3.88-1.78,5.68,0,3.54,3.52,7.07,7.05,10.58,10.59,1.64,1.66,1.71,3.95.23,5.42-1.5,1.48-3.76,1.39-5.43-.27-1.43-1.43-2.82-2.9-4.31-4.44Zm22.32,26.6c-3.17,0-5.6.04-8.03-.02-1.04-.03-1.54.16-1.4,1.37.14,1.32.04,2.66-.24,3.98-1.79,8.56-9.8,14.86-19.26,13.33-9.1-1.48-14.63-9.51-14.09-17.39.07-1.03-.23-1.27-1.24-1.28-5.63-.08-11.27.32-16.9-.23-.75-.07-.97.19-1.04.9-.2,1.92.18,3.8.2,5.71,0,.64.45.76,1,.75,1.62-.02,3.25-.03,4.87,0,2.05.04,3.23.9,3.9,2.84.57,1.64,1.21,3.25,1.99,4.81.92,1.86.68,3.24-.79,4.74-1.08,1.1-2.14,2.22-3.28,3.25-.65.59-.71.99-.13,1.68,1.78,2.12,3.72,4.07,5.86,5.82.6.49.95.51,1.49-.07,1.13-1.22,2.32-2.38,3.52-3.54,1.32-1.27,2.85-1.52,4.45-.71,1.63.83,3.3,1.51,5.03,2.09,1.85.62,2.72,1.88,2.73,3.85.01,1.62.03,3.25,0,4.87-.02.69.13.97.91,1.04,2.84.28,5.66.25,8.5,0,.7-.06.88-.31.86-.97-.04-1.62-.02-3.25,0-4.87.01-2.07.85-3.27,2.78-3.93,1.65-.56,3.25-1.22,4.81-2,1.89-.94,3.35-.67,4.85.82,1.15,1.14,2.33,2.26,3.45,3.44.44.47.73.44,1.21.06,2.26-1.81,4.27-3.85,6.11-6.08.44-.53.4-.84-.08-1.29-1.2-1.15-2.38-2.33-3.53-3.52-1.39-1.43-1.63-2.9-.74-4.65.78-1.52,1.4-3.09,1.94-4.7.69-2.08,1.97-2.97,4.19-2.99,1.58-.01,3.16-.03,4.75,0,.6.01.91-.16.93-.8.07-1.9.32-3.8.21-5.71-.04-.78-.29-.97-1.02-.85-3.15.49-6.32.15-8.74.25Zm-26.27,11.53c5.72.03,10.2-4.97,9.54-10.63-.07-.64-.29-.91-.98-.91-5.71.02-11.43.02-17.14,0-.65,0-.82.26-.88.85-.6,5.77,3.72,10.65,9.46,10.68Z"/>
  </g>
</svg>