<?xml version="1.0" encoding="utf-8"?>
<!-- Generator: Adobe Illustrator 26.0.0, SVG Export Plug-In . SVG Version: 6.00 Build 0)  -->
<svg version="1.1" id="Layer_1" xmlns="http://www.w3.org/2000/svg" xmlns:xlink="http://www.w3.org/1999/xlink" x="0px" y="0px"
	 viewBox="0 0 512 512" style="enable-background:new 0 0 512 512;" xml:space="preserve">
<style type="text/css">
	.st0{fill:#FFFFFF;}
</style>
<path class="st0" d="M405.3,85.3h-23.5C371.9,36.7,328.8,0,277.3,0H106.7C47.9,0,0,47.9,0,106.7v274.2c0,16.9,9.3,32.4,24.2,40.4
	c6.8,3.6,14.2,5.4,21.7,5.4c8.9,0,17.7-2.6,25.4-7.7l62.9-42c14.7,41.3,54.2,70.9,100.5,70.9h121.5l84.6,56.4
	c7.7,5.1,16.5,7.7,25.4,7.7c7.4,0,14.8-1.8,21.7-5.5c14.9-8,24.2-23.5,24.2-40.4V192C512,133.2,464.1,85.3,405.3,85.3L405.3,85.3z
	 M47.6,383.6c-0.4,0.3-1.6,1-3.2,0.1c-1.7-0.9-1.7-2.3-1.7-2.8V106.7c0-35.3,28.7-64,64-64h170.7c35.3,0,64,28.7,64,64V256
	c0,35.3-28.7,64-64,64h-128c-7,0-11.5,3.4-12.1,3.7L47.6,383.6L47.6,383.6z M469.3,466.2c0,0.4,0,1.9-1.7,2.8
	c-1.7,0.9-2.8,0.1-3.2-0.1l-89.9-60c-3.5-2.3-7.6-3.6-11.8-3.6h-128c-27.8,0-51.5-17.8-60.3-42.7h103c58.8,0,106.7-47.9,106.7-106.7
	V128h21.3c35.3,0,64,28.7,64,64V466.2L469.3,466.2z"/>
</svg>
