<?xml version="1.0" encoding="UTF-8"?>
<svg id="Layer_2" data-name="Layer 2" xmlns="http://www.w3.org/2000/svg" viewBox="0 0 103.77 90.43">
  <defs>
    <style>
      .cls-1 {
        fill: #fff;
      }
    </style>
  </defs>
  <g id="Layer_1-2" data-name="Layer 1">
    <g>
      <path class="cls-1" d="m0,88.18V2.04C.79.92,1.65,0,3.23,0c32.35.02,64.7.01,97.05.02,2.3,0,3.49,1.19,3.49,3.48,0,27.79,0,55.58,0,83.38,0,2.35-1.2,3.54-3.55,3.54-31.95,0-63.89-.01-95.84.03-1.96,0-3.5-.37-4.39-2.25ZM51.95,24.34c-14.86,0-29.73,0-44.59-.02-.95,0-1.31.14-1.31,1.24.04,19.22.03,38.44.01,57.66,0,.82.11,1.14,1.07,1.14,29.86-.03,59.72-.03,89.58,0,.83,0,.99-.25.99-1.02-.02-19.32-.02-38.64,0-57.97,0-.86-.25-1.04-1.07-1.04-14.9.03-29.79.02-44.69.02Zm-9.08-18.24c-11.85,0-23.71.01-35.56-.02-.93,0-1.28.15-1.25,1.19.07,3.34.05,6.69.01,10.03,0,.73.14.98.93.98,23.84-.02,47.69-.02,71.53,0,.79,0,.95-.27.94-.98-.03-3.28,0-6.55-.02-9.83,0-1.52.25-1.36-1.32-1.37-11.75,0-23.51,0-35.26,0Zm42.66,6.08c0,1.75.03,3.51-.02,5.26-.02.68.21.84.86.83,3.51-.03,7.01-.02,10.52,0,.61,0,.82-.16.81-.79-.03-3.54-.03-7.08,0-10.62,0-.66-.23-.78-.82-.78-3.51.02-7.01.03-10.52,0-.65,0-.88.16-.86.84.05,1.75.02,3.51.02,5.26Z"/>
      <path class="cls-1" d="m18.25,54.34c0-3.98,0-7.97,0-11.95,0-2.02,1.25-3.26,3.28-3.26,7.9,0,15.8,0,23.69,0,2.23,0,3.42,1.2,3.42,3.44,0,7.86,0,15.73,0,23.59,0,2.15-1.21,3.36-3.39,3.36-7.9,0-15.8,0-23.69,0-2.08,0-3.31-1.25-3.31-3.35,0-3.95,0-7.9,0-11.85h0Zm15.17,9.12h0c2.77,0,5.54-.02,8.31.02.66,0,.86-.17.85-.85-.03-5.54-.02-11.08,0-16.61,0-.62-.17-.81-.8-.81-5.54.02-11.08.02-16.61,0-.66,0-.86.21-.86.87.02,5.54.02,11.08,0,16.61,0,.63.19.79.8.79,2.77-.03,5.54-.01,8.31-.01Z"/>
      <path class="cls-1" d="m73.72,57.37c-2.8,0-5.6,0-8.41,0-1.95,0-3.3-1.28-3.29-3.07.01-1.79,1.37-3.01,3.34-3.01,5.67,0,11.34,0,17.02,0,1.64,0,2.91,1.08,3.13,2.6.21,1.5-.76,2.95-2.29,3.36-.32.09-.67.09-1,.09-2.84,0-5.67,0-8.51,0h0Z"/>
      <path class="cls-1" d="m73.73,69.53c-2.8,0-5.6,0-8.4,0-1.95,0-3.31-1.28-3.3-3.06.01-1.77,1.39-3.01,3.35-3.01,5.67,0,11.34,0,17.01,0,1.64,0,2.91,1.09,3.14,2.6.22,1.48-.77,2.95-2.28,3.37-.32.09-.67.09-1,.09-2.84,0-5.67,0-8.51,0h0Z"/>
      <path class="cls-1" d="m76.81,45.21c-1.86,0-3.71.01-5.57,0-1.84-.02-3.16-1.34-3.13-3.11.02-1.69,1.37-2.96,3.18-2.96,3.68,0,7.36,0,11.04,0,1.86,0,3.2,1.3,3.2,3.06,0,1.71-1.33,2.99-3.14,3-1.86.02-3.71,0-5.57,0h0Z"/>
    </g>
  </g>
</svg>