<?xml version="1.0" encoding="UTF-8"?>
<svg id="Layer_2" data-name="Layer 2" xmlns="http://www.w3.org/2000/svg" xmlns:xlink="http://www.w3.org/1999/xlink" viewBox="0 0 334.37 334.37">
  <defs>
    <style>
      .cls-1 {
        fill: none;
        stroke: #fff;
        stroke-linecap: round;
        stroke-width: 21.33px;
      }

      .cls-2 {
        fill: url(#linear-gradient);
      }
    </style>
    <linearGradient id="linear-gradient" x1="97.52" y1="327.95" x2="241.65" y2="-.49" gradientTransform="translate(0 336.37) scale(1 -1)" gradientUnits="userSpaceOnUse">
      <stop offset="0" stop-color="#8549dd"/>
      <stop offset=".56" stop-color="#ed517e"/>
      <stop offset="1" stop-color="#f97418"/>
    </linearGradient>
  </defs>
  <g id="Layer_1-2" data-name="Layer 1">
    <path class="cls-2" d="m155.82,7.92c3.91-10.56,18.84-10.56,22.74,0l8.6,23.25c19.89,53.76,62.28,96.15,116.05,116.05l23.25,8.6c10.56,3.91,10.56,18.84,0,22.74l-23.25,8.6c-53.76,19.89-96.15,62.28-116.05,116.05l-8.6,23.25c-3.91,10.56-18.84,10.56-22.74,0l-8.6-23.25c-19.89-53.76-62.28-96.15-116.05-116.05l-23.25-8.6c-10.56-3.91-10.56-18.84,0-22.74l23.25-8.6c53.76-19.89,96.15-62.28,116.05-116.05l8.6-23.25Z"/>
    <path class="cls-1" d="m145.86,131.64l-30.52,30.52c-2.78,2.78-2.78,7.28,0,10.05l30.52,30.52"/>
    <path class="cls-1" d="m188.51,131.64l30.52,30.52c2.78,2.78,2.78,7.28,0,10.05l-30.52,30.52"/>
  </g>
</svg>