<?xml version="1.0" encoding="UTF-8"?>
<svg id="Layer_2" data-name="Layer 2" xmlns="http://www.w3.org/2000/svg" viewBox="0 0 117.41 117.4">
  <defs>
    <style>
      .cls-1 {
        fill: #fff;
      }
    </style>
  </defs>
  <g id="Layer_1-2" data-name="Layer 1">
    <g>
      <path class="cls-1" d="m0,88.05V8.71c.14-.39.32-.77.42-1.17C1.45,3.38,5.58.03,9.85.02,42.33,0,74.81,0,107.29,0c5.51,0,10.11,4.66,10.11,10.18.01,25.41,0,50.82,0,76.23,0,5.03-3.47,9.17-8.38,10.16-1.41.28-2.82.18-4.22.19-9.93.01-19.87,0-29.8,0-.64,0-1.26-.18-.97.96,1,3.96,1.89,7.95,2.8,11.94.15.66.46.9,1.17.89,2.67-.04,5.35-.03,8.02,0,1.43.01,2.47.7,3.09,1.99.62,1.31.37,2.5-.47,3.64-.45.61-1.17.8-1.73,1.24H30.04c-.04-.06-.08-.14-.13-.17-1.82-.86-2.74-2.35-2.34-3.96.44-1.73,1.88-2.84,3.81-2.77,2.52.09,5.04-.01,7.56.04.76.01,1.04-.24,1.21-.97.87-3.87,1.78-7.74,2.73-11.59.25-1,.05-1.25-1-1.24-10.54.04-21.07.04-31.61.02-4.41,0-8.33-2.87-9.72-7.02-.19-.56-.16-1.2-.55-1.69Zm58.7-11.92h0c16.89,0,33.78,0,50.67.02.83,0,1.19-.11,1.18-1.09-.03-21.48-.02-42.95-.03-64.43,0-2.34-1.44-3.76-3.79-3.76-31.98,0-63.97,0-95.95,0-2.54,0-3.9,1.36-3.9,3.87,0,21.4,0,42.8-.02,64.2,0,.93.19,1.21,1.17,1.21,16.89-.03,33.78-.02,50.67-.02Zm.01,6.88c-16.27,0-32.55,0-48.82,0-.95,0-2.19-.31-2.77.17-.68.56-.22,1.86-.23,2.83-.03,2.48,1.39,3.87,3.9,3.87,5.81,0,11.61,0,17.42,0,26.09,0,52.18,0,78.27,0,2.65,0,4.05-1.37,4.05-3.98,0-.53-.06-1.08.01-1.6.14-1.03-.22-1.32-1.29-1.32-16.85.04-33.69.03-50.54.03Zm-.25,27.52h0c3.51,0,7.03-.01,10.54.02.77,0,.95-.14.75-.95-.97-3.98-1.88-7.97-2.78-11.96-.14-.6-.34-.9-1.05-.89-4.96.03-9.93.03-14.89,0-.59,0-.89.14-1.02.75-.91,4.03-1.82,8.06-2.8,12.07-.23.93.08.97.84.96,3.47-.03,6.95-.01,10.42-.01Z"/>
      <path class="cls-1" d="m58.57,13.75c6.69,0,13.37.02,20.06-.02,1.36,0,2.41.45,3.36,1.4,4.27,4.32,8.58,8.6,12.87,12.9,2.01,2.01,2,3.82-.02,5.83-11.16,11.16-22.31,22.31-33.47,33.47-1.96,1.96-3.82,1.97-5.75.04-11.15-11.16-22.3-22.31-33.45-33.47-2.06-2.07-2.06-3.86-.01-5.91,4.21-4.21,8.43-8.42,12.61-12.66,1.09-1.1,2.29-1.62,3.86-1.6,6.65.06,13.3.02,19.94.02Zm-.07,20.65h0c-2.56,0-5.11,0-7.67-.02-.76,0-.95.23-.65.94.58,1.37,1.1,2.75,1.65,4.13,1.98,4.94,3.96,9.88,5.95,14.82.15.38.25.87.77.87.35,0,.45-.38.56-.66,2.55-6.39,5.08-12.79,7.65-19.17.36-.89-.01-.94-.71-.93-2.52.02-5.04,0-7.56,0Zm-25.61,0c5.25,5.29,10.43,10.51,15.6,15.72.12-.14-.03-.3-.1-.46-1.93-4.92-3.87-9.83-5.79-14.75-.2-.52-.56-.52-1-.52-1.34.01-2.67,0-4.01.01-1.58,0-3.17,0-4.72,0Zm51.21,0c-3.03,0-6.07,0-9.11,0-.59,0-.61.49-.76.86-1.32,3.28-2.63,6.56-3.94,9.85-.68,1.72-1.36,3.44-2.13,5.38,5.41-5.46,10.63-10.73,15.93-16.08Zm-51.58-7.35l.31.46c3.31,0,6.62,0,9.93.01.44,0,.7-.23.97-.5,1.81-1.8,3.61-3.61,5.41-5.43.2-.2.57-.39.4-.74-.16-.32-.54-.21-.83-.21-2.94,0-5.87,0-8.81-.01-.4,0-.71.09-1.02.38-2.11,2.02-4.24,4.03-6.36,6.04Zm51.48.46l.34-.51c-2.15-2.05-4.3-4.09-6.45-6.14-.22-.21-.46-.23-.74-.23-2.94,0-5.88,0-8.82,0-.3,0-.7-.04-.83.27-.15.37.21.62.44.85,1.37,1.39,2.84,2.68,4.1,4.15,1.09,1.27,2.31,1.72,3.97,1.63,2.66-.14,5.32-.04,7.99-.04Zm-20.5-.07c.08-.12.15-.24.23-.36-1.52-1.43-3.05-2.86-4.55-4.31-.44-.42-.77-.62-1.31-.08-1.52,1.52-3.09,2.99-4.61,4.75h10.23Z"/>
    </g>
  </g>
</svg>