<?xml version="1.0" encoding="UTF-8"?>
<svg id="Layer_2" data-name="Layer 2" xmlns="http://www.w3.org/2000/svg" viewBox="0 0 124.75 100">
  <defs>
    <style>
      .cls-1 {
        fill: #fff;
      }
    </style>
  </defs>
  <g id="Layer_1-2" data-name="Layer 1">
    <g>
      <path class="cls-1" d="m0,62.42c.61-.41.79-1.18,1.42-1.6.73-.49,1.49-.8,2.37-.81,10.59,0,21.17-.01,31.76.01,1.63,0,2.88.78,3.55,2.32.61,1.41.27,2.7-.7,3.83-.8.93-1.87,1.17-3.07,1.17-6-.02-12.01-.01-18.01-.01-3.98,0-7.95-.1-11.92.04-2.32.08-4.23-.29-5.39-2.51v-2.44Z"/>
      <path class="cls-1" d="m63.93,6.3c-1.26-2.05-1.26-3.69-.06-5.03,1.1-1.23,2.7-1.63,4.19-.93,3.18,1.5,6.37,3.01,9.5,4.61,2.37,1.21,2.81,4.1.87,5.91-2.58,2.41-5.25,4.72-7.93,7.01-1.16.99-2.54,1.22-3.96.48-1.29-.68-2.05-1.78-1.97-3.23.07-1.19-.34-1.24-1.26-.9-7.45,2.76-13.65,7.21-18.49,13.52-1.31,1.71-2.43,3.54-3.49,5.41-1,1.76-2.19,2.15-4.24,2.07-3.53-.14-7.06-.05-10.59-.06-.6,0-1.2.03-1.79-.21-1.66-.67-2.59-2.29-2.3-4.1.27-1.7,1.84-2.98,3.76-3,2.96-.02,5.92-.02,8.89,0,.62,0,1.01-.15,1.37-.73,6.41-10.13,15.3-17.03,26.78-20.55.23-.07.44-.19.72-.31Z"/>
      <path class="cls-1" d="m76.87,39.23c1.18,0,2.37.07,3.46.55.83.37,1.31.07,1.86-.53,2.19-2.39,4.37-4.79,6.65-7.1,1.96-1.99,5.07-1.22,5.97,1.42.49,1.43.11,2.7-.91,3.8-2.19,2.34-4.36,4.7-6.58,7.01-.53.55-.55.96-.27,1.67,1.63,4.14.97,8-1.93,11.31-2.99,3.42-6.88,4.55-11.22,3.28-4.18-1.22-6.83-4.14-7.64-8.46-1.28-6.83,3.77-12.92,10.61-12.96Zm.09,7.34c-2.04-.02-3.64,1.54-3.66,3.57-.01,1.96,1.66,3.67,3.61,3.68,1.92.01,3.65-1.7,3.69-3.64.04-1.97-1.59-3.59-3.65-3.61Z"/>
      <path class="cls-1" d="m60.87,99.96c-7.66,0-15.33-.06-22.99.04-2.49.03-4.12-1.8-4.09-3.68.03-2.18,1.68-3.67,4.13-3.67,14.36,0,28.71-.01,43.07.02,2.13,0,4.17-.27,6.19-.97,2.23-.78,4.25.12,4.98,2.11.73,1.98-.31,3.9-2.53,4.79-2.4.96-4.87,1.39-7.46,1.38-7.1-.04-14.19-.01-21.29-.01h0Z"/>
      <path class="cls-1" d="m31.8,83.65c-4.42,0-8.84,0-13.26,0-2.34,0-3.91-1.44-3.93-3.54-.02-2.23,1.57-3.77,3.99-3.77,8.8-.01,17.6-.01,26.4,0,1.94,0,3.49,1.1,3.91,2.69.42,1.57-.26,3.24-1.64,4.12-.76.49-1.6.52-2.46.52-4.34,0-8.68,0-13.02,0h0Z"/>
      <path class="cls-1" d="m25.3,51.02c-2.31,0-4.63.03-6.94,0-2.24-.03-3.75-1.51-3.75-3.59,0-2.15,1.53-3.71,3.78-3.72,4.54-.03,9.09-.02,13.63,0,2.3.01,4.01,1.63,4.01,3.71,0,2.1-1.67,3.6-4.04,3.61-2.23,0-4.46,0-6.69,0Z"/>
      <path class="cls-1" d="m120.81,70.57c.05.46-.09.99-.33,1.53-.71,1.55-1.45,3.08-2.35,4.52-1.08,1.75-3.12,2.31-4.85,1.38-1.67-.9-2.39-3.04-1.54-4.81.71-1.5,1.47-2.97,2.25-4.43.82-1.52,2.52-2.27,4.11-1.88,1.61.39,2.7,1.84,2.71,3.7Z"/>
      <path class="cls-1" d="m87.23,5.69c1.95.43,4.22.89,6.27,1.96,1.58.83,2.12,2.8,1.45,4.44-.68,1.66-2.39,2.58-4.14,2.14-1.72-.44-3.43-.91-5.11-1.47-1.68-.56-2.67-2.34-2.39-4.05.27-1.66,1.9-3.02,3.92-3.02Z"/>
      <path class="cls-1" d="m111.55,21.05c-.07,1.45-.75,2.52-2.05,3.17-1.37.68-2.69.49-3.85-.46-1.28-1.05-2.52-2.16-3.74-3.28-1.54-1.42-1.69-3.59-.4-5.12,1.23-1.45,3.46-1.73,5.02-.49,1.39,1.1,2.7,2.31,3.99,3.54.72.69,1.1,1.59,1.03,2.64Z"/>
      <path class="cls-1" d="m109.33,85.4c.06,1.66-.4,2.6-1.24,3.3-1.31,1.09-2.64,2.15-4.03,3.12-1.82,1.28-3.92.92-5.14-.78-1.22-1.7-.86-3.78.88-5.14,1.21-.94,2.42-1.89,3.65-2.82,1.21-.91,2.55-1.01,3.89-.38,1.33.62,1.92,1.78,1.99,2.7Z"/>
      <path class="cls-1" d="m124.75,53.4c-.09,1.09-.15,2.18-.28,3.26-.26,2.18-1.84,3.48-4,3.32-1.81-.14-3.38-1.94-3.22-3.89.12-1.54.1-3.07.15-4.61.06-2.01,1.74-3.68,3.64-3.65,2.01.03,3.62,1.67,3.66,3.75.01.61,0,1.21,0,1.82.02,0,.04,0,.06,0Z"/>
      <path class="cls-1" d="m116.71,29.07c1.11.13,2.26.66,2.91,1.92.85,1.65,1.62,3.34,2.18,5.12.58,1.83-.36,3.8-2.1,4.47-1.83.7-3.74-.03-4.59-1.83-.74-1.57-1.44-3.16-2.07-4.78-.91-2.33.94-4.95,3.67-4.9Z"/>
    </g>
  </g>
</svg>