<?xml version="1.0" encoding="UTF-8"?>
<svg id="Layer_2" data-name="Layer 2" xmlns="http://www.w3.org/2000/svg" viewBox="0 0 103.77 103.79">
  <defs>
    <style>
      .cls-1 {
        fill: #fff;
      }
    </style>
  </defs>
  <g id="Layer_1-2" data-name="Layer 1">
    <path class="cls-1" d="m0,70.14c.64-1.46,1.12-2.99,2.21-4.25,3.05-3.52,8.39-4.23,12.15-1.48.6.44.98.41,1.59.07,5.82-3.34,11.65-6.67,17.5-9.95.91-.51,1.33-1.08,1.23-2.13-.09-.94-.05-1.89-.03-2.83.01-.5-.15-.68-.67-.74-2.96-.35-5.71-1.3-8.13-3.06-5.51-4.02-8.14-9.52-7.26-16.23,1-7.65,5.55-12.59,13.02-14.67,1.06-.3,1.64-.68,2.02-1.77,2.52-7.08,7.6-11.43,14.9-12.77,9.34-1.71,18.24,3.49,21.58,12.48.14.38.3.76.38,1.15.08.43.27.58.72.67,7.45,1.46,12.8,7.05,13.94,14.52,1.44,9.34-5.19,18.21-14.57,19.52q-1.44.2-1.44,1.61c0,.41.07.82-.01,1.21-.36,1.77.47,2.66,1.99,3.49,5.56,3.04,11.04,6.24,16.53,9.4.66.38,1.09.5,1.85-.02,3.12-2.11,6.46-2.27,9.72-.38,3.3,1.92,4.8,4.97,4.51,8.76-.35,4.52-4.18,8.01-8.8,8.19-4.48.17-8.42-3.03-9.23-7.45-.15-.81-.25-1.62-.12-2.41.12-.72-.17-1.01-.73-1.33-6.13-3.47-12.19-7.07-18.41-10.39-2.53-1.35-3.82-2.98-3.44-5.89.17-1.26,0-2.56.04-3.85.01-.55-.11-.77-.72-.77-2.23.03-4.46.03-6.69,0-.59,0-.73.21-.73.76.02,3.72.03,7.43-.01,11.15,0,.6.36.73.72.94,4.42,2.53,8.82,5.1,13.28,7.55,1.74.95,2.5,2.18,2.47,4.2-.1,5.77-.06,11.55-.02,17.33.01,1.62-.67,2.66-2.02,3.44-5.55,3.17-11.09,6.38-16.64,9.57h-1.62c-.4-.23-.81-.46-1.21-.69-5.26-3.03-10.52-6.06-15.77-9.1-1.11-.64-1.66-1.61-1.66-2.92.01-5.94.06-11.89-.02-17.83-.03-1.86.7-3.01,2.29-3.89,4.49-2.48,8.93-5.04,13.38-7.58.43-.24.8-.46.8-1.13-.05-3.68-.03-7.36-.01-11.04,0-.56-.13-.76-.73-.75-2.19.03-4.39.04-6.59,0-.69-.01-.84.23-.83.87.04,1.79-.02,3.58.02,5.37.03,1.54-.59,2.61-1.94,3.38-6.63,3.75-13.24,7.55-19.87,11.31-.52.3-.79.58-.72,1.25.1.86.06,1.74-.15,2.61-.91,3.81-3.23,6.28-7.05,7.1-3.64.78-6.7-.41-9.08-3.3-.98-1.19-1.39-2.65-1.93-4.04v-3.24Zm51.87-27.36c2.67,0,5.34,0,8,0,2.7,0,5.4.01,8.11,0,7.09-.04,12.28-6.23,11.09-13.22-.84-4.89-5.38-8.96-10.13-9.09-2.67-.07-3.59-.87-4.05-3.51-1.44-8.24-10.28-13.12-17.99-9.87-4.63,1.95-7.26,5.5-8.16,10.41-.39,2.11-1.43,2.92-3.55,2.97-6.89.14-12.12,7.09-10.34,13.75,1.39,5.23,5.69,8.55,11.11,8.56,5.3.01,10.6,0,15.91,0Zm13.4,41.03h0c0-1.75-.02-3.51.01-5.26.01-.7-.2-.74-.74-.43-3,1.75-6,3.49-9.01,5.22-.43.25-.61.53-.61,1.04.02,3.41.02,6.82,0,10.22,0,.79.27.76.81.44,2.97-1.73,5.94-3.46,8.92-5.17.46-.27.66-.56.64-1.11-.04-1.65-.02-3.31-.02-4.96Zm-16.42,11.65c0-3.76-.02-7.34.02-10.91,0-.68-.24-1.02-.79-1.34-2.96-1.68-5.91-3.38-8.85-5.1-.59-.34-.72-.25-.72.42.02,3.44.01,6.89,0,10.33,0,.4.07.68.46.9,3.24,1.85,6.47,3.73,9.88,5.7Zm-7.23-23c3.45,1.99,6.72,3.87,9.98,5.75.31.18.58.02.85-.14,3.04-1.76,6.07-3.52,9.11-5.26.47-.27.57-.39.02-.7-3.06-1.72-6.09-3.47-9.14-5.2-.29-.17-.57-.32-.94-.11-3.21,1.85-6.43,3.68-9.89,5.65Zm-32.52,2.39c1.67.01,3.04-1.33,3.06-2.99.02-1.63-1.35-3.01-3.02-3.05-1.62-.03-3.04,1.37-3.06,3.01-.02,1.65,1.34,3.01,3.02,3.03Zm85.54,0c1.66.02,3.05-1.35,3.05-3,0-1.64-1.36-3.01-3.03-3.04-1.62-.03-3.05,1.38-3.05,3.02,0,1.67,1.34,3,3.03,3.02Z"/>
  </g>
</svg>