<?xml version="1.0" encoding="utf-8"?>
<!-- Generator: Adobe Illustrator 26.0.0, SVG Export Plug-In . SVG Version: 6.00 Build 0)  -->
<svg version="1.1" id="Layer_1" xmlns="http://www.w3.org/2000/svg" xmlns:xlink="http://www.w3.org/1999/xlink" x="0px" y="0px"
	 viewBox="0 0 24 24" style="enable-background:new 0 0 24 24;" xml:space="preserve">
<style type="text/css">
	.st0{fill:#FFFFFF;}
</style>
<path class="st0" d="M12,23c0,0.6-0.4,1-1,1H4.2c-1.5,0-2.8-0.7-3.5-1.8C0.2,21.5,0,20.7,0,19.9c0-3.7,3.8-7.8,6.1-10
	C6.7,9.3,7,8.5,7,7.7V2H6C5.4,2,5,1.6,5,1s0.4-1,1-1h11c0.6,0,1,0.4,1,1s-0.4,1-1,1h-1v5.7c0,0.3,0.1,0.7,0.2,1
	c0.2,0.5-0.1,1.1-0.6,1.3s-1.1-0.1-1.3-0.6C14.1,8.8,14,8.3,14,7.7V2H9v5.7c0,1.4-0.6,2.7-1.6,3.6C6.1,12.6,5,13.8,4.1,15H9
	c0.6,0,1,0.4,1,1c0,0.6-0.4,1-1,1H2.9C2.3,18.1,2,19,2,19.9c0,0.5,0.1,0.9,0.4,1.2C2.7,21.7,3.4,22,4.2,22H11C11.6,22,12,22.4,12,23
	L12,23z M23.6,20.7c-0.2,0.3-0.5,0.5-0.9,0.5c-0.2,0-0.3,0-0.5-0.1l-1-0.6c-0.6,0.7-1.4,1.1-2.3,1.3V23c0,0.6-0.4,1-1,1s-1-0.4-1-1
	v-1.1c-0.9-0.2-1.7-0.7-2.3-1.3l-1,0.6c-0.2,0.1-0.3,0.1-0.5,0.1c-0.3,0-0.7-0.2-0.9-0.5c-0.3-0.5-0.1-1.1,0.4-1.4l1-0.6
	c-0.1-0.4-0.2-0.9-0.2-1.3s0.1-0.9,0.2-1.3l-1-0.6c-0.5-0.3-0.6-0.9-0.4-1.4c0.3-0.5,0.9-0.6,1.4-0.4l1,0.6c0.6-0.7,1.4-1.1,2.3-1.3
	V12c0-0.6,0.4-1,1-1s1,0.4,1,1v1.1c0.9,0.2,1.7,0.7,2.3,1.3l1-0.6c0.5-0.3,1.1-0.1,1.4,0.4c0.3,0.5,0.1,1.1-0.4,1.4l-1,0.6
	c0.1,0.4,0.2,0.9,0.2,1.3s-0.1,0.9-0.2,1.3l1,0.6C23.7,19.7,23.9,20.3,23.6,20.7z M20.5,17.5c0-1.4-1.1-2.5-2.5-2.5
	s-2.5,1.1-2.5,2.5S16.6,20,18,20S20.5,18.9,20.5,17.5z"/>
</svg>
