<?xml version="1.0" encoding="UTF-8"?>
<svg id="Layer_2" data-name="Layer 2" xmlns="http://www.w3.org/2000/svg" viewBox="0 0 110.69 84.34">
  <defs>
    <style>
      .cls-1 {
        fill: #fff;
      }
    </style>
  </defs>
  <g id="Layer_1-2" data-name="Layer 1">
    <g>
      <path class="cls-1" d="m0,81.53V2.62C1.05.5,2.82-.03,5.08,0c5.94.1,11.89.03,17.83.03,27.81,0,55.62,0,83.43.01,2.85,0,4.35,1.4,4.35,4.04,0,25.43,0,50.86,0,76.3,0,.43,0,.85-.14,1.28-.61,1.82-1.9,2.65-4.2,2.65-33.75,0-67.51-.02-101.26.03-2.33,0-4.15-.51-5.09-2.82ZM55.29,28.84h0c-15.56.01-31.12.02-46.69,0-.95,0-1.44.05-1.43,1.28.05,15.17.02,30.33.01,45.5,0,1.46,0,1.45,1.48,1.45,31.05,0,62.1,0,93.16,0,1.92,0,1.66.18,1.66-1.67.02-15.17.01-30.33.05-45.5,0-1.03-.45-1.06-1.23-1.06-15.67.01-31.34.01-47.01.01Zm.08-7.2c15.67,0,31.35,0,47.02.02.88,0,1.14-.21,1.13-1.12-.05-3.96-.07-7.93.01-11.89.02-1.14-.33-1.37-1.39-1.37-30.23.03-60.46.03-90.69.03-1.15,0-2.31.03-3.46,0-.6-.01-.81.2-.81.82.02,4.18.04,8.36,0,12.54,0,.84.28.99,1.06.99,15.71-.02,31.42-.02,47.13-.02Z"/>
      <path class="cls-1" d="m100.74,13.97c.01,2.52-2.3,4.83-4.84,4.83-2.57,0-4.79-2.23-4.83-4.83-.04-2.54,2.27-4.83,4.83-4.81,2.59.02,4.83,2.24,4.84,4.82Z"/>
      <path class="cls-1" d="m74.45,14.15c-.11,2.63-2.32,4.74-4.87,4.64-2.67-.1-4.83-2.42-4.71-5.05.12-2.56,2.46-4.72,4.95-4.57,2.71.16,4.74,2.35,4.63,4.98Z"/>
      <path class="cls-1" d="m87.56,13.99c.02,2.6-2.2,4.83-4.78,4.81-2.54-.01-4.73-2.18-4.76-4.73-.04-2.69,2.15-4.94,4.78-4.9,2.65.03,4.74,2.16,4.76,4.83Z"/>
    </g>
  </g>
</svg>