<?xml version="1.0" encoding="utf-8"?>
<!-- Generator: Adobe Illustrator 26.0.0, SVG Export Plug-In . SVG Version: 6.00 Build 0)  -->
<svg version="1.1" id="Layer_1" xmlns="http://www.w3.org/2000/svg" xmlns:xlink="http://www.w3.org/1999/xlink" x="0px" y="0px"
	 viewBox="0 0 24 24" style="enable-background:new 0 0 24 24;" xml:space="preserve">
<style type="text/css">
	.st0{fill:#FFFFFF;}
</style>
<path class="st0" d="M23.4,16.1c0,0-8.7-4-8.8-4c-0.7-0.2-1.5-0.1-2.1,0.5s-0.7,1.3-0.4,2.2l3.9,8.7c0.2,0.4,0.5,0.6,0.9,0.6h0
	c0.4,0,0.7-0.2,0.9-0.6l1.9-3.7l3.7-1.9c0.3-0.2,0.6-0.5,0.6-0.9C24,16.6,23.8,16.3,23.4,16.1L23.4,16.1z M18.6,18.1
	c-0.2,0.1-0.4,0.3-0.4,0.4L17,20.7L14,14l6.7,3L18.6,18.1L18.6,18.1z M12.9,22c-0.2,0-0.3,0-0.5,0c-0.7-0.7-2.4-2.5-3.6-5h0.7
	c0.6,0,1-0.4,1-1s-0.4-1-1-1H8c-0.3-1-0.5-2-0.5-3S7.7,10,8,9H16c0.1,0.4,0.2,0.8,0.3,1.2c0.1,0.5,0.6,0.9,1.2,0.8
	c0.5-0.1,0.9-0.6,0.8-1.2c-0.1-0.3-0.1-0.5-0.2-0.8h3.4c0,0,0,0,0,0c0.3,0.9,0.5,2,0.5,3c0,0.3,0,0.6,0,0.9c0,0.6,0.4,1,0.9,1.1
	c0.6,0.1,1-0.4,1.1-0.9c0-0.4,0-0.7,0-1.1c0-6.6-5.4-12-12-12S0,5.4,0,12s5.4,12,12,12l0,0c0.4,0,0.7,0,1.1,0c0.6,0,1-0.5,0.9-1.1
	C13.9,22.3,13.5,21.9,12.9,22L12.9,22z M5.9,15H2.5c0,0,0,0,0,0C2.2,14.1,2,13,2,12s0.2-2.1,0.5-3c0,0,0,0,0,0h3.4
	c-0.2,1-0.4,2-0.4,3S5.6,14,5.9,15L5.9,15z M8.8,7c1-2.1,2.4-3.7,3.2-4.6c0.8,0.9,2.2,2.5,3.2,4.6C15.2,7,8.8,7,8.8,7z M20.7,7h-3.2
	c-0.8-1.9-1.9-3.5-2.8-4.7C17.2,3,19.3,4.7,20.7,7z M9.4,2.3C8.5,3.5,7.4,5.1,6.6,7H3.3C4.7,4.7,6.8,3,9.4,2.3z M3.3,17h3.2
	c0.8,1.9,1.9,3.5,2.8,4.7C6.8,21,4.7,19.3,3.3,17z"/>
</svg>
